  <svg
    width="556"
    height="190"
    viewBox="0 0 556 190"
    fill="none"
    xmlns="http://www.w3.org/2000/svg"
  >
    <g clipPath="url(#clip0_391_5474)">
      <path d="M408.957 106.525C401.857 103.837 395.659 99.7553 390.98 94.4629C379.509 81.5397 376.554 61.6419 383.839 46.0725C388.887 35.2826 398.409 27.0158 410.681 22.7901C422.604 18.6874 435.82 19.0772 446.942 23.8568C459.378 29.2107 469.29 40.0211 474.133 53.5187C478.525 65.7446 478.155 78.3396 473.148 88.0834C467.217 99.6117 454.043 107.694 437.913 109.725C427.714 111.017 417.658 109.807 408.957 106.504V106.525ZM442.571 29.6004C422.768 22.0926 398.594 30.8722 390.119 49.0264C383.983 62.1548 386.466 78.9345 396.172 89.868C404.976 99.7758 421.024 104.884 437.051 102.853C450.903 101.109 462.087 94.4014 466.971 84.9243C471.055 77.0063 471.281 66.1548 467.587 55.8778C463.38 44.1853 454.864 34.8313 444.192 30.2569C443.659 30.0312 443.125 29.8056 442.592 29.6004H442.571Z" fill="white" />
      <path d="M418.315 56.3495C416.961 59.9393 414.149 62.1957 412.056 61.3957C409.963 60.5957 409.368 57.0469 410.743 53.4571C412.097 49.8673 414.908 47.6109 417.002 48.4109C419.095 49.2109 419.69 52.7597 418.315 56.3495Z" fill="white" />
      <path d="M448.912 65.4984C447.558 69.0882 444.747 71.3446 442.653 70.5446C440.56 69.7446 439.965 66.1959 441.34 62.6061C442.694 59.0163 445.506 56.7598 447.599 57.5598C449.692 58.3598 450.287 61.9086 448.912 65.4984Z" fill="white" />
      <path d="M446.347 88.3706C445.732 88.0013 444.233 86.8936 443.679 84.8628C442.961 82.2577 444.357 80.1243 444.644 79.7345C445.116 79.0781 444.952 78.1755 444.316 77.7243C443.659 77.2525 442.756 77.4166 442.304 78.0525C441.976 78.5038 440.663 80.4935 440.601 83.1808C440.519 83.2218 440.437 83.2628 440.375 83.3038C439.431 83.9603 430.854 89.7039 420.675 86.0116C411.44 82.6679 408.218 74.237 407.664 72.5755C407.623 72.4319 407.562 72.3088 407.48 72.1652C409.06 70.1549 409.388 67.9395 409.45 67.4062C409.532 66.6061 408.957 65.9087 408.157 65.8266C407.357 65.7446 406.659 66.319 406.577 67.119C406.536 67.6113 406.166 70.1139 403.888 71.5908C402.124 72.7396 400.277 72.5755 399.579 72.4319C398.799 72.2883 398.04 72.8216 397.896 73.6011C397.773 74.2986 398.163 74.955 398.799 75.2011C398.881 75.2422 398.963 75.2627 399.066 75.2832C399.948 75.4473 401.98 75.6319 404.155 74.7088C405.345 77.7858 409.368 86.0321 418.951 89.6834C419.074 89.7244 419.197 89.7655 419.3 89.8065C429.561 93.5194 438.446 89.2116 441.607 87.3244C442.633 89.2732 444.151 90.3809 444.87 90.8116C444.952 90.8527 445.034 90.8937 445.116 90.9347C445.752 91.1809 446.491 90.9347 446.86 90.3398C447.271 89.6629 447.065 88.7603 446.388 88.3501L446.347 88.3706Z" fill="white" />
      <path d="M358.126 176.536C357.264 176.208 356.587 175.531 356.258 174.649C355.93 173.746 356.033 172.741 356.525 171.9L374.173 142.833L346.757 135.653C345.156 135.222 344.13 133.622 344.438 131.981L350.04 102.525C350.204 101.663 350.697 100.924 351.436 100.453C352.154 99.9809 353.057 99.8168 353.898 100.022L401.98 111.304L488.088 124.371C488.95 124.494 489.729 124.986 490.222 125.704C490.714 126.422 490.899 127.325 490.714 128.166C487.718 142.464 484.661 158.464 484.558 161.151C484.722 162.054 484.496 162.997 483.922 163.756C482.629 165.397 481.069 165.397 474.954 164.618C471.855 164.228 467.628 163.592 462.354 162.751C457.018 161.889 451.703 160.966 448.235 160.372L449.179 202.711C449.2 203.757 448.728 204.741 447.886 205.357C447.045 205.972 445.957 206.136 444.993 205.808L358.208 176.597C358.208 176.597 358.126 176.577 358.085 176.556L358.126 176.536ZM380.248 137.869C381.069 138.176 381.725 138.833 382.074 139.653C382.444 140.576 382.361 141.643 381.848 142.505L364.056 171.818L442.756 198.321L441.832 156.638C441.812 155.674 442.222 154.771 442.941 154.156C443.659 153.541 444.623 153.274 445.567 153.438C458.496 155.756 472.758 158.054 478.463 158.628C478.812 155.961 479.612 151.428 481.151 143.469C482.136 138.402 483.162 133.356 483.819 130.176L400.892 117.602C400.892 117.602 400.728 117.581 400.646 117.561L355.684 107.017L351.251 130.279L379.919 137.787C380.022 137.807 380.145 137.848 380.248 137.889V137.869Z" fill="white" />
      <path d="M280.452 102.053C279.159 99.0168 278.954 95.8988 280.042 93.0064C281.622 88.8628 285.501 86.032 290.98 85.0268C295.823 84.1448 301.466 84.7807 306.904 86.8525C318.93 91.4064 325.948 101.253 322.911 109.273C321.331 113.417 317.452 116.248 311.973 117.253C307.13 118.135 301.487 117.499 296.049 115.427C288.374 112.514 282.71 107.427 280.452 102.053ZM315.934 102.955C314.538 99.6527 310.475 95.8372 304.36 93.5193C300.194 91.9398 295.782 91.4064 292.252 92.0423C289.359 92.5757 287.347 93.8475 286.711 95.5295C285.336 99.1399 289.872 105.437 298.573 108.74C302.738 110.32 307.151 110.853 310.68 110.217C313.574 109.684 315.585 108.412 316.221 106.73C316.631 105.663 316.508 104.35 315.913 102.935L315.934 102.955Z" fill="white" />
      <path d="M512.795 160.269C511.503 157.233 511.297 154.115 512.385 151.223C513.965 147.079 517.844 144.249 523.323 143.243C528.166 142.361 533.809 142.997 539.247 145.069C551.273 149.623 558.291 159.469 555.254 167.49C553.674 171.634 549.795 174.464 544.316 175.47C539.473 176.352 533.83 175.716 528.392 173.644C520.717 170.731 515.053 165.644 512.795 160.269ZM548.277 161.172C546.881 157.869 542.818 154.054 536.703 151.736C532.537 150.156 528.125 149.623 524.595 150.259C521.702 150.792 519.691 152.064 519.054 153.746C517.679 157.356 522.235 163.654 530.916 166.957C535.082 168.536 539.494 169.069 543.023 168.434C545.917 167.9 547.928 166.628 548.564 164.946C548.975 163.88 548.851 162.567 548.256 161.151L548.277 161.172Z" fill="white" />
      <path d="M416.349 103.519L416.048 118.655L423.188 118.797L423.489 103.661L416.349 103.519Z" fill="white" />
      <path d="M403.232 253.583C402.575 253.337 402.042 252.804 401.775 252.147L391.576 226.403C387.266 231.06 380.843 238.116 379.345 240.27C377.888 242.362 375.056 242.219 367.689 239.737C363.42 238.301 357.674 236.044 350.594 233.049C338.61 227.962 326.749 222.383 326.646 222.321C325.948 221.993 325.435 221.378 325.251 220.619C325.066 219.88 325.251 219.08 325.702 218.465L354.001 181.274C354.658 180.413 355.766 180.064 356.792 180.392L450.39 209.377C451.375 209.685 452.093 210.567 452.175 211.593L456.259 261.07C456.321 261.87 456.013 262.65 455.418 263.183C454.823 263.717 454.002 263.942 453.222 263.778L403.663 253.686C403.519 253.665 403.396 253.624 403.273 253.563L403.232 253.583ZM393.361 219.326C394.018 219.572 394.551 220.106 394.818 220.762L406.002 248.968L450.882 258.117L447.209 213.726L356.956 185.767L331.653 219.039C350.594 227.88 371.054 236.352 375.692 236.619C379.058 232.27 390.098 220.475 390.611 219.962C391.206 219.326 392.089 219.039 392.951 219.203C393.094 219.224 393.238 219.265 393.382 219.326H393.361Z" fill="white" />
      <path d="M403.232 253.583C402.575 253.337 402.042 252.804 401.775 252.147L391.576 226.403C387.266 231.06 380.843 238.116 379.345 240.27C377.888 242.362 375.056 242.219 367.689 239.737C363.42 238.301 357.674 236.044 350.594 233.049C338.61 227.962 326.749 222.383 326.646 222.321C325.948 221.993 325.435 221.378 325.251 220.619C325.066 219.88 325.251 219.08 325.702 218.465L354.001 181.274C354.658 180.413 355.766 180.064 356.792 180.392L450.39 209.377C451.375 209.685 452.093 210.567 452.175 211.593L456.259 261.07C456.321 261.87 456.013 262.65 455.418 263.183C454.823 263.717 454.002 263.942 453.222 263.778L403.663 253.686C403.519 253.665 403.396 253.624 403.273 253.563L403.232 253.583ZM393.361 219.326C394.018 219.572 394.551 220.106 394.818 220.762L406.002 248.968L450.882 258.117L447.209 213.726L356.956 185.767L331.653 219.039C350.594 227.88 371.054 236.352 375.692 236.619C379.058 232.27 390.098 220.475 390.611 219.962C391.206 219.326 392.089 219.039 392.951 219.203C393.094 219.224 393.238 219.265 393.382 219.326H393.361Z" fill="white" />
      <path d="M470.131 24.8414C464.857 30.2158 458.537 34.3389 451.478 36.9646L453.591 38.5646C455.643 30.4209 457.716 22.2772 459.768 14.113C460.138 12.6155 457.819 11.7745 457.018 13.0053C451.395 21.7234 444.295 29.3542 435.984 35.5902L438.446 36.9851C438.713 26.0516 438.98 15.1386 439.247 4.20514C439.288 2.60512 436.907 1.66152 436.312 3.44616C433.809 11.036 430.258 18.1951 425.682 24.7593L428.309 25.0875C425.744 18.031 423.158 10.9745 420.593 3.91796C420.1 2.54358 417.699 2.78974 417.679 4.30771C417.392 17.99 417.104 31.6517 416.837 45.334L419.751 44.9442C414.826 29.8055 407.911 15.4053 399.251 2.03075C398.43 0.779452 396.234 1.74357 396.542 3.17949C398.717 13.6617 399.989 24.308 400.379 35.0159L403.293 34.2159C399.866 28.0414 396.419 21.8669 392.992 15.6925C392.212 14.2976 389.749 14.6463 390.078 16.4925C391.288 23.2208 392.499 29.9491 393.71 36.6979C394.059 38.6262 397.096 38.2364 396.747 36.2877C395.536 29.5594 394.325 22.8311 393.115 16.0822L390.201 16.8823C393.628 23.0567 397.075 29.2312 400.502 35.4056C401.344 36.9236 403.499 36.3697 403.416 34.6056C403.027 23.8977 401.734 13.2514 399.579 2.76923L396.87 3.91796C405.366 17.0464 412.097 31.262 416.94 46.1135C417.392 47.5084 419.834 47.2212 419.854 45.7237C420.141 32.0415 420.429 18.3797 420.695 4.69746L417.781 5.08721C420.347 12.1437 422.932 19.2002 425.497 26.2568C425.887 27.344 427.488 27.5081 428.124 26.585C432.824 19.8156 436.538 12.4104 439.124 4.57438L436.189 3.8154L435.389 36.5954C435.348 37.8877 436.723 38.8518 437.851 37.9903C446.347 31.6107 453.673 23.7747 459.44 14.8515L456.69 13.7437C454.638 21.8875 452.565 30.0312 450.513 38.1954C450.205 39.3852 451.662 40.1647 452.627 39.7954C459.912 37.0672 466.54 32.7799 471.978 27.2414C473.333 25.867 471.465 23.4465 470.09 24.8414H470.131Z" fill="white" />
      <path d="M485.556 140.491L483.698 147.384L513.36 155.373L515.218 148.48L485.556 140.491Z" fill="white" />
      <path d="M320.444 105.059L318.346 111.883L348.592 121.178L350.691 114.355L320.444 105.059Z" fill="white" />
      <path d="M119.524 116.884C111.91 118.422 104.317 118.279 97.381 116.268C80.3893 111.345 66.9683 95.7554 64.7725 78.3192C63.2334 66.237 66.9683 53.8675 75.259 43.5289C83.3239 33.4775 94.9595 26.5851 107.211 24.6569C120.899 22.503 135.366 26.4415 146.94 35.4673C157.427 43.652 163.993 54.7496 164.978 65.9088C166.148 79.1192 159.171 93.2938 146.325 103.858C138.198 110.545 128.84 114.997 119.503 116.884H119.524ZM106.575 32.0006C85.335 36.3083 69.2462 57.1086 71.8114 77.4371C73.6788 92.145 85.0066 105.294 99.3511 109.458C112.382 113.233 129.046 108.884 141.81 98.381C152.83 89.3142 158.843 77.4166 157.899 66.5447C157.098 57.4779 151.373 47.9598 142.569 41.0879C132.555 33.2724 120.057 29.8467 108.319 31.6929C107.724 31.7954 107.149 31.898 106.575 32.0006Z" fill="white" />
      <path d="M100.213 68.3702C100.993 72.2061 99.8025 75.6933 97.5657 76.1651C95.3289 76.6164 92.8663 73.8677 92.0865 70.0317C91.3067 66.1958 92.4969 62.7085 94.7338 62.2367C96.9706 61.7854 99.4332 64.5342 100.213 68.3702Z" fill="white" />
      <path d="M131.672 59.5701C132.452 63.4061 131.262 66.8933 129.025 67.3651C126.788 67.8164 124.326 65.0676 123.546 61.2317C122.766 57.3957 123.956 53.9085 126.193 53.4367C128.43 52.9854 130.892 55.7342 131.672 59.5701Z" fill="white" />
      <path d="M141.953 80.7806C141.215 80.7806 139.327 80.6576 137.726 79.2011C135.674 77.3344 135.715 74.7293 135.756 74.237C135.797 73.4164 135.181 72.719 134.361 72.678C133.54 72.6369 132.842 73.2523 132.801 74.0729C132.76 74.6472 132.719 77.0883 134.135 79.4473C134.094 79.5293 134.032 79.6114 134.012 79.6934C133.56 80.7806 129.271 90.4218 118.456 92.8013C108.647 94.9552 101.239 89.4167 99.8641 88.2885C99.741 88.1859 99.6179 88.1038 99.4742 88.0423C99.7615 85.4371 98.8175 83.3448 98.5713 82.8525C98.2019 82.114 97.3195 81.8268 96.5807 82.1755C95.8419 82.5448 95.5546 83.4268 95.9035 84.1653C96.1292 84.6166 97.1758 86.9961 96.0266 89.4987C95.1237 91.4475 93.4409 92.309 92.7637 92.5962C92.0044 92.9039 91.635 93.7655 91.9634 94.5244C92.2302 95.2014 92.9484 95.5501 93.6256 95.4065C93.7077 95.4065 93.8103 95.3655 93.8924 95.3245C94.7338 94.9757 96.6012 94.0321 97.9762 92.0424C100.705 94.0526 108.668 98.9963 118.97 96.904C119.093 96.8835 119.216 96.8424 119.359 96.8219C130.277 94.4424 135.592 85.8474 137.295 82.5038C139.245 83.632 141.153 83.755 142.015 83.7345C142.118 83.7345 142.2 83.7345 142.302 83.714C142.98 83.5704 143.493 82.9756 143.493 82.2371C143.493 81.4166 142.815 80.7601 141.995 80.7806H141.953Z" fill="white" />
      <path d="M72.2013 50.6469L62.782 44.4109L54.8812 68.3292L64.4442 73.2113L72.2013 50.6469Z" fill="white" />
      <path d="M133.252 30.0928L136.29 18.8516L158.412 33.4979L152.748 40.7186L133.252 30.0928Z" fill="white" />
      <path d="M63.5823 51.4879C56.0304 43.1391 47.4114 34.1953 35.5911 32.8825C30.1324 32.2671 24.448 33.2107 19.9743 36.5543C15.9111 39.5903 13.2639 43.898 11.8068 48.7186C8.54393 59.4265 12.2788 70.1959 17.3476 79.6524C22.478 89.2115 29.6399 98.504 31.1585 109.52C31.5484 112.35 31.6305 115.284 30.9533 118.074C30.4608 120.063 29.4757 122.156 27.8751 123.243C25.9255 124.535 23.6682 124.063 21.5545 122.833C19.0714 121.397 16.9987 119.161 15.2134 116.966C14.1463 115.653 12.402 115.058 10.8834 116.063C9.59053 116.904 8.8928 119.079 9.98043 120.391C13.5101 124.679 18.0659 129.561 23.9145 130.197C30.0709 130.853 34.6266 126.668 36.5351 121.13C40.27 110.32 35.0576 98.2988 29.8657 88.9243C24.6737 79.5498 17.5939 69.9702 16.8756 59.2008C16.5883 54.729 17.3271 50.3597 19.4408 46.4622C21.4314 42.8314 24.8584 40.0211 29.2295 39.18C41.7886 36.78 51.7414 47.6519 59.3959 56.1033C60.5246 57.3546 62.7614 57.047 63.808 55.8777C65.0393 54.5238 64.7315 52.7187 63.5823 51.4674V51.4879Z" fill="white" />
      <path d="M60.7504 57.6625C55.7226 52.7599 50.1408 47.488 42.9788 46.1341C36.7814 44.9649 29.8862 46.7495 26.2539 52.1855C22.4164 57.9292 23.7503 65.6011 26.5002 71.5089C28.9217 76.7192 32.4308 81.2321 35.8374 85.827C37.6638 88.2886 39.4492 90.7912 40.9677 93.4579C42.2606 95.7349 43.5329 98.8118 43.9844 101.294C44.2717 102.955 45.4824 104.33 47.2883 104.227C48.8274 104.125 50.5102 102.586 50.2229 100.925C48.3144 90.1553 40.5163 82.6065 34.8113 73.7243C32.2051 69.6627 29.7015 64.8626 30.153 59.7138C30.625 54.1343 35.0165 51.8573 40.0032 52.0624C40.3726 52.0624 41.0088 52.1445 41.6655 52.2881C42.3632 52.4111 43.0609 52.5958 43.7381 52.8214C45.1951 53.3342 46.7753 54.1958 48.1502 55.0779C51.249 57.0676 53.9167 59.7754 56.5435 62.3395C57.7542 63.5293 59.8474 63.3446 60.9556 62.1139C62.1253 60.8215 61.9406 58.8728 60.7298 57.7035L60.7504 57.6625Z" fill="white" />
      <path d="M56.9539 61.5804C51.762 58.7291 45.7082 62.3804 44.046 67.6112C42.2811 73.2113 45.2567 78.7088 48.2939 83.2423C51.2695 87.6321 53.6705 92.1449 55.1275 97.2732C56.4409 101.909 57.5901 107.817 55.2917 112.104C54.8197 112.986 54.163 113.848 53.4448 114.463C52.6444 115.12 51.5979 115.591 50.9412 115.673C49.9356 115.797 49.0737 115.673 48.3555 115.304C47.7193 114.976 47.7193 114.997 47.3499 114.627C46.9805 114.217 47.5346 114.915 47.2063 114.484C46.96 114.176 46.7753 113.827 46.5906 113.458C45.8519 111.94 43.5535 111.694 42.2606 112.556C40.701 113.561 40.5984 115.366 41.3577 116.884C43.6561 121.561 49.9767 123.12 54.5324 121.068C60.0321 118.566 62.5563 112.802 62.782 107.037C63.0077 101.273 61.4686 95.6117 59.3755 90.4834C58.2878 87.8372 56.995 85.2525 55.4764 82.832C54.0604 80.555 52.4187 78.4422 51.1464 76.0627C50.0382 74.0113 49.1763 71.1805 50.1614 68.9241C50.5102 68.1241 51.0438 67.5497 51.721 67.201C52.2751 66.9138 52.6034 66.8728 52.9933 66.8523C54.0194 66.8112 52.7881 66.7702 53.3627 66.8523C53.5679 66.9138 53.5884 66.8933 53.4037 66.8112C53.6295 66.8933 53.8347 66.9959 54.0399 67.1189C57.5696 69.0677 60.422 63.5086 56.9129 61.5599L56.9539 61.5804Z" fill="white" />
      <path d="M141.912 26.3183C140.968 17.5387 146.509 8.92319 155.354 6.72828C159.458 5.70263 164.034 6.25648 167.769 8.12318C171.792 10.1335 174.665 13.5592 176.86 17.4772C181.97 26.5235 183.037 37.2723 187.962 46.4417C192.847 55.529 203.005 63.0368 213.676 59.2624C219.052 57.3752 222.951 52.8213 223.28 47.0776C223.547 42.1339 220.858 36.698 216.056 34.8928C214.476 34.2979 212.67 34.6056 211.849 36.2262C211.152 37.6005 211.603 39.8365 213.183 40.4313C213.635 40.5955 214.066 40.8006 214.497 41.0467C214.948 41.3134 214.189 40.8006 214.62 41.1288C214.825 41.2929 215.03 41.457 215.215 41.6416C215.358 41.7852 215.523 41.9288 215.646 42.0929C215.543 41.9698 215.379 41.7442 215.728 42.216C215.851 42.3801 215.974 42.5647 216.077 42.7493C216.077 42.7493 216.528 43.5904 216.323 43.1596C216.713 43.9801 216.918 44.8006 216.98 45.334C217.041 45.8263 217.062 46.3186 217.062 46.8109C217.062 46.8725 217.021 47.4263 217.062 46.9545C217.041 47.2827 216.98 47.6109 216.918 47.9186C216.733 48.8622 216.692 49.0263 216.097 50.011C215.83 50.4623 214.886 51.5084 214.435 51.8366C212.957 52.9854 211.193 53.6828 209.489 53.888C205.262 54.4213 201.26 52.6572 198.018 49.5802C194.304 46.0519 192.128 41.2929 190.446 36.5339C187.224 27.3645 185.356 17.3131 179.056 9.57961C175.793 5.57955 171.751 2.62566 166.805 1.06666C162.188 -0.389772 157.057 -0.30772 152.44 1.06666C141.625 4.28722 134.443 15.5694 135.653 26.7286C135.838 28.4107 137.234 29.7645 138.957 29.662C140.579 29.5594 142.077 28.0414 141.892 26.3593L141.912 26.3183Z" fill="white" />
      <path d="M151.434 28.062C151.434 28.062 151.742 27.0979 151.537 27.6312C151.619 27.3851 151.742 27.1389 151.845 26.8928C152.071 26.421 152.317 25.9492 152.604 25.4979C152.686 25.3748 153.015 24.903 152.768 25.2517C152.953 25.0056 153.158 24.7389 153.363 24.5132C153.712 24.103 154.082 23.7337 154.472 23.3645C154.184 23.6312 154.615 23.2414 154.718 23.1594C154.923 22.9953 155.149 22.8312 155.354 22.6876C155.744 22.4209 156.462 21.9901 156.647 21.9081C156.401 22.0311 157.098 21.7234 157.16 21.7029C157.406 21.6004 157.652 21.5183 157.899 21.4363C158.145 21.3542 158.412 21.2927 158.658 21.2106C159.499 20.9645 158.227 21.2106 159.109 21.1081C159.643 21.0465 160.176 20.985 160.731 20.985C160.731 20.985 161.572 21.0055 161.285 20.985C160.977 20.9645 161.757 21.0465 161.839 21.067C162.434 21.1491 163.008 21.2927 163.583 21.4568C163.747 21.4978 164.281 21.7029 163.87 21.5388C164.117 21.6414 164.363 21.744 164.63 21.867C166.661 22.8106 167.954 23.9389 169.103 25.7645C169.986 27.2005 172.038 27.5902 173.433 26.6671C174.829 25.744 175.239 23.7748 174.336 22.3388C171.094 17.108 164.568 13.8874 158.412 14.9131C152.255 15.9387 147.002 20.5952 145.298 26.7697C144.847 28.3902 146.14 30.1338 147.72 30.462C149.464 30.8313 150.962 29.6825 151.414 28.0415L151.434 28.062Z" fill="white" />
      <path d="M153.856 34.9748C156.195 33.8056 159.335 34.8312 161.572 36.3287C164.383 38.1954 166.559 41.2724 168.693 43.9596C173.556 50.0725 179.261 55.3033 185.828 59.5496C189.419 61.8675 193.236 63.8163 197.197 65.3958C198.757 66.0112 200.583 65.6625 201.404 64.0624C202.122 62.6676 201.63 60.4727 200.07 59.8573C192.764 56.9444 186.074 52.7802 180.287 47.4263C177.435 44.7801 174.952 41.8672 172.53 38.8108C169.965 35.5697 167.256 32.3081 163.563 30.2978C159.417 28.0209 154.656 27.6517 150.408 29.785C148.89 30.544 148.643 32.8004 149.505 34.1133C150.511 35.6518 152.317 35.7748 153.835 35.0159L153.856 34.9748Z" fill="white" />
      <path d="M127.685 112.551L120.525 114.005L123.429 128.298L130.589 126.845L127.685 112.551Z" fill="white" />
      <path d="M219.586 228.783C219.545 228.947 219.504 229.091 219.463 229.255C219.093 230.321 218.231 231.142 217.164 231.491L108.524 267.368C107.354 267.758 106.062 267.532 105.097 266.753C104.133 265.973 103.62 264.763 103.763 263.532L112.977 175.08L79.0349 181.972C78.0089 182.177 76.9418 181.931 76.1004 181.295C75.259 180.659 74.746 179.695 74.6639 178.649L72.3244 146.177C72.2013 144.536 73.2069 143.018 74.7665 142.464L89.665 137.315C89.665 137.315 89.6855 137.315 89.7061 137.315L187.306 104.74C188.25 104.432 189.276 104.514 190.158 104.966C191.041 105.417 191.697 106.217 191.964 107.181L202.492 143.305C203.025 145.171 202.02 147.141 200.173 147.777L174.726 156.577L219.052 226.096C219.565 226.896 219.75 227.88 219.545 228.804L219.586 228.783ZM111.602 258.671L210.433 226.034L166.128 156.577C165.533 155.633 165.389 154.464 165.758 153.418C166.128 152.372 166.949 151.531 168.016 151.161L194.55 141.992L186.054 112.822L92.066 144.187L79.8353 148.413L81.6822 173.951L116.425 166.895C117.554 166.669 118.744 166.997 119.606 167.777C120.468 168.556 120.899 169.705 120.775 170.854L111.623 258.65L111.602 258.671Z" fill="white" />
      <path d="M227.727 112.972L190.964 120.435L192.21 126.566L228.973 119.103L227.727 112.972Z" fill="white" />
      <path d="M73.8566 156.944L44.439 163.982L45.8959 170.067L75.3135 163.029L73.8566 156.944Z" fill="white" />
      <path d="M273.475 111.776C272.059 118.484 263.707 124.802 252.4 127.099C246.305 128.33 240.271 128.207 235.408 126.751C229.867 125.089 226.358 121.869 225.496 117.684C223.875 109.663 233.13 101.253 246.592 98.5247C260.054 95.7964 271.874 99.9401 273.495 107.94C273.762 109.212 273.742 110.504 273.475 111.797V111.776ZM231.652 115.038C231.55 115.53 231.55 115.981 231.632 116.433C232.001 118.217 234.033 119.797 237.214 120.761C241.051 121.91 246.14 121.992 251.168 120.966C261.388 118.894 268.18 113.027 267.38 109.171C266.6 105.315 258.084 102.545 247.844 104.638C238.794 106.484 232.453 111.284 231.652 115.038Z" fill="white" />
      <path d="M46.1597 170.916C45.5646 173.726 43.7997 176.495 40.9472 178.957C37.2123 182.198 31.9384 184.618 26.1103 185.808C13.2228 188.413 1.854 184.188 0.232813 176.187C-0.608564 172.044 1.23836 167.736 5.46577 164.085C9.20066 160.844 14.4747 158.423 20.3027 157.233C26.1513 156.044 31.9384 156.228 36.6377 157.746C41.9528 159.469 45.3388 162.71 46.1802 166.854C46.447 168.208 46.447 169.562 46.1597 170.916ZM6.36871 173.418C6.2661 173.952 6.24558 174.464 6.34819 174.936C7.128 178.793 14.9261 181.705 24.8585 179.675C29.5989 178.711 33.97 176.721 36.843 174.218C39.244 172.126 40.4137 169.89 40.0443 168.085C39.6749 166.259 37.7254 164.659 34.6882 163.674C31.0559 162.505 26.2539 162.382 21.5135 163.326C16.7731 164.29 12.402 166.28 9.529 168.782C7.76416 170.321 6.65601 171.941 6.34819 173.398L6.36871 173.418Z" fill="white" />
    </g>
    <defs>
      <clipPath id="clip0_391_5474">
        <rect width="556" height="343" fill="white" />
      </clipPath>
    </defs>
  </svg>